<?xml version="1.0" encoding="UTF-8"?>
<svg width="132px" height="60px" viewBox="0 0 132 60" version="1.1" xmlns="http://www.w3.org/2000/svg" xmlns:xlink="http://www.w3.org/1999/xlink">
    <title>New_Wordmark_White_132x60</title>
    <defs>
        <filter id="filter-1">
            <feColorMatrix in="SourceGraphic" type="matrix" values="0 0 0 0 1.000000 0 0 0 0 1.000000 0 0 0 0 1.000000 0 0 0 1.000000 0"></feColorMatrix>
        </filter>
        <polygon id="path-2" points="0.0390636632 0.0646526316 16.0640791 0.0646526316 16.0640791 12 0.0390636632 12"></polygon>
        <polygon id="path-4" points="0.0518991852 0.0646526316 16.0769147 0.0646526316 16.0769147 12 0.0518991852 12"></polygon>
    </defs>
    <g id="New_Wordmark_White_132x60" stroke="none" stroke-width="1" fill="none" fill-rule="evenodd">
        <g filter="url(#filter-1)" id="Group-12">
            <g transform="translate(10.000000, 24.000000)">
                <g id="Group-3" transform="translate(52.629310, 0.000000)">
                    <mask id="mask-3" fill="white">
                        <use xlink:href="#path-2"></use>
                    </mask>
                    <g id="Clip-2"></g>
                    <path d="M12.0298033,4.86717895 L4.40403249,4.86717895 C4.05930067,4.86717895 3.67267514,4.84086316 3.49239845,4.79475789 C2.81741936,4.62170526 2.49430292,4.06907368 2.49430292,3.50107368 C2.49430292,3.01138947 2.78109661,2.41938947 3.50732866,2.21265263 C3.72504229,2.15054737 3.93384236,2.14717895 4.37595478,2.14717895 L15.1952302,2.14717895 L15.1952302,0.0646526316 L4.19723797,0.0646526316 C3.76448478,0.0646526316 3.41641038,0.0777052632 3.10599576,0.117915789 C1.32818683,0.349915789 0.0390636632,1.73770526 0.0390636632,3.50591579 C0.0390636632,5.08591579 1.12919167,6.64696842 3.06209649,6.91391579 C3.48526761,6.97223158 4.13060913,6.96170526 4.30531484,6.96170526 L11.695322,6.96170526 C11.8007249,6.96170526 12.1737572,6.96823158 12.2691323,6.98086316 C13.1500145,7.09749474 13.6046059,7.72928421 13.6046059,8.43896842 C13.6046059,9.03391579 13.2150835,9.71749474 12.3440062,9.86465263 C12.2328095,9.88338947 11.8408359,9.89349474 11.7138177,9.89349474 L0.410536148,9.89349474 L0.410536148,12.0000211 L11.8925345,12.0000211 C12.0309175,12.0000211 12.6655627,11.9943368 12.7963692,11.9831789 C14.9434222,11.8002316 16.0640791,10.1585474 16.0640791,8.42086316 C16.0640791,6.88991579 15.0439225,5.09791579 12.9744175,4.90465263 C12.5376532,4.86381053 12.1820023,4.86717895 12.0298033,4.86717895" id="Fill-1" fill="#231F20" mask="url(#mask-3)"></path>
                </g>
                <g id="Group-6" transform="translate(30.620690, 0.000000)">
                    <mask id="mask-5" fill="white">
                        <use xlink:href="#path-4"></use>
                    </mask>
                    <g id="Clip-5"></g>
                    <path d="M12.0426388,4.86717895 L4.41709085,4.86717895 C4.07235903,4.86717895 3.68551066,4.84086316 3.50523397,4.79475789 C2.83025488,4.62170526 2.50736128,4.06907368 2.50736128,3.50107368 C2.50736128,3.01138947 2.79393213,2.41938947 3.52016418,2.21265263 C3.73787781,2.15054737 3.94667788,2.14717895 4.3887903,2.14717895 L15.2080657,2.14717895 L15.2080657,0.0646526316 L4.21007349,0.0646526316 C3.7773203,0.0646526316 3.4292459,0.0777052632 3.11883128,0.117915789 C1.34102235,0.349915789 0.0518991852,1.73770526 0.0518991852,3.50591579 C0.0518991852,5.08591579 1.1420272,6.64696842 3.07493201,6.91391579 C3.49832597,6.97223158 4.14344465,6.96170526 4.31815037,6.96170526 L11.7083804,6.96170526 C11.8135604,6.96170526 12.1868156,6.96823158 12.2821906,6.98086316 C13.1630729,7.09749474 13.6174415,7.72928421 13.6174415,8.43896842 C13.6174415,9.03391579 13.227919,9.71749474 12.3568417,9.86465263 C12.2456451,9.88338947 11.8536714,9.89349474 11.7266532,9.89349474 L0.42337167,9.89349474 L0.42337167,12.0000211 L11.90537,12.0000211 C12.043753,12.0000211 12.6783982,11.9943368 12.8092047,11.9831789 C14.9562577,11.8002316 16.0769147,10.1585474 16.0769147,8.42086316 C16.0769147,6.88991579 15.0569809,5.09791579 12.987253,4.90465263 C12.5507115,4.86381053 12.1948378,4.86717895 12.0426388,4.86717895" id="Fill-4" fill="#231F20" mask="url(#mask-5)"></path>
                </g>
                <polygon id="Fill-7" fill="#000000" points="22.0086207 12 24.8793103 12 24.8793103 0 22.0086207 0"></polygon>
                <polygon id="Fill-9" fill="#000000" points="12.9556702 9.58852789 3.2911538 0 0 0 0 12 2.3548903 12 2.3548903 2.34860832 12.0853893 12 15.3103448 12 15.3103448 0 12.9556702 0"></polygon>
                <polygon id="Fill-10" fill="#000000" points="108.645325 9.58873955 98.9805933 0 95.6896552 0 95.6896552 12 98.0445455 12 98.0445455 2.34860832 107.77526 12 111 12 111 0 108.645325 0"></polygon>
                <path d="M78.21299,7.86813419 L81.817155,2.22965393 L85.4158856,7.86813419 L78.21299,7.86813419 Z M80.4185303,0 L72.7241379,12 L75.6189911,12 L77.0371801,9.77838925 L86.5938693,9.77838925 L88.0140147,12 L90.9051724,12 L83.2133886,0 L80.4185303,0 Z" id="Fill-11" fill="#000000"></path>
            </g>
        </g>
    </g>
</svg>